<mxfile host="app.diagrams.net" modified="2022-07-13T12:38:56.292Z" agent="5.0 (Macintosh; Intel Mac OS X 10_15_7) AppleWebKit/537.36 (KHTML, like Gecko) Chrome/96.0.4664.93 Safari/537.36" etag="6buFDwtxyW201kPtEo-t" version="20.0.4" type="github">
  <diagram id="1NXz8SLnc8T_IT7TGXPE" name="Page-1">
    <mxGraphModel dx="786" dy="523" grid="1" gridSize="10" guides="1" tooltips="1" connect="1" arrows="1" fold="1" page="1" pageScale="1" pageWidth="827" pageHeight="1169" math="0" shadow="0">
      <root>
        <mxCell id="0" />
        <mxCell id="1" parent="0" />
        <mxCell id="pEEWrCeibMResj4VJN0l-1" value="&lt;font style=&quot;font-size: 72px;&quot;&gt;SONIDO&lt;/font&gt;" style="text;html=1;strokeColor=none;fillColor=none;align=center;verticalAlign=middle;whiteSpace=wrap;rounded=0;sketch=0;" vertex="1" parent="1">
          <mxGeometry x="160" y="60" width="60" height="30" as="geometry" />
        </mxCell>
        <mxCell id="pEEWrCeibMResj4VJN0l-2" value="&lt;font style=&quot;font-size: 18px;&quot;&gt;Movimiento de partÃ­culas de aire&lt;/font&gt;" style="text;html=1;strokeColor=none;fillColor=none;spacing=5;spacingTop=-20;whiteSpace=wrap;overflow=hidden;rounded=0;sketch=0;fontSize=72;" vertex="1" parent="1">
          <mxGeometry x="60" y="120" width="290" height="70" as="geometry" />
        </mxCell>
      </root>
    </mxGraphModel>
  </diagram>
</mxfile>
